<svg xmlns="http://www.w3.org/2000/svg" xmlns:xlink="http://www.w3.org/1999/xlink" width="8000" zoomAndPan="magnify" viewBox="0 0 6000 1124.99995" height="1500" preserveAspectRatio="xMidYMid meet" version="1.0"><defs><clipPath id="id1"><path d="M 1344.472656 259.777344 L 1899.472656 259.777344 L 1899.472656 428.527344 L 1344.472656 428.527344 Z M 1344.472656 259.777344 " clip-rule="nonzero"/></clipPath><clipPath id="id2"><path d="M 1344.472656 423.914062 L 1579.972656 423.914062 L 1579.972656 861.914062 L 1344.472656 861.914062 Z M 1344.472656 423.914062 " clip-rule="nonzero"/></clipPath><clipPath id="id3"><path d="M 1576.855469 514.347656 L 1783.105469 514.347656 L 1783.105469 617.847656 L 1576.855469 617.847656 Z M 1576.855469 514.347656 " clip-rule="nonzero"/></clipPath><clipPath id="id4"><path d="M 1969.074219 259.777344 L 2524.074219 259.777344 L 2524.074219 428.527344 L 1969.074219 428.527344 Z M 1969.074219 259.777344 " clip-rule="nonzero"/></clipPath><clipPath id="id5"><path d="M 1969.074219 423.914062 L 2204.574219 423.914062 L 2204.574219 861.914062 L 1969.074219 861.914062 Z M 1969.074219 423.914062 " clip-rule="nonzero"/></clipPath><clipPath id="id6"><path d="M 2201.457031 515.097656 L 2407.707031 515.097656 L 2407.707031 618.597656 L 2201.457031 618.597656 Z M 2201.457031 515.097656 " clip-rule="nonzero"/></clipPath><clipPath id="id7"><path d="M 2593.046875 261.910156 L 2813.546875 261.910156 L 2813.546875 864.738281 L 2593.046875 864.738281 Z M 2593.046875 261.910156 " clip-rule="nonzero"/></clipPath><clipPath id="id8"><path d="M 2593.796875 261.910156 L 3148.796875 261.910156 L 3148.796875 430.660156 L 2593.796875 430.660156 Z M 2593.796875 261.910156 " clip-rule="nonzero"/></clipPath><clipPath id="id9"><path d="M 2593.046875 697.554688 L 3148.046875 697.554688 L 3148.046875 866.304688 L 2593.046875 866.304688 Z M 2593.046875 697.554688 " clip-rule="nonzero"/></clipPath><clipPath id="id10"><path d="M 2761.113281 512.789062 L 3021.363281 512.789062 L 3021.363281 622.289062 L 2761.113281 622.289062 Z M 2761.113281 512.789062 " clip-rule="nonzero"/></clipPath><clipPath id="id11"><path d="M 3219.148438 263.796875 L 3819.898438 263.796875 L 3819.898438 427.296875 L 3219.148438 427.296875 Z M 3219.148438 263.796875 " clip-rule="nonzero"/></clipPath><clipPath id="id12"><path d="M 3218.398438 699.871094 L 3819.898438 699.871094 L 3819.898438 865.621094 L 3218.398438 865.621094 Z M 3218.398438 699.871094 " clip-rule="nonzero"/></clipPath><clipPath id="id13"><path d="M 3218.398438 422.414062 L 3454.648438 422.414062 L 3454.648438 727.664062 L 3218.398438 727.664062 Z M 3218.398438 422.414062 " clip-rule="nonzero"/></clipPath><clipPath id="id14"><path d="M 3579.25 414.425781 L 3819.25 414.425781 L 3819.25 500.675781 L 3579.25 500.675781 Z M 3579.25 414.425781 " clip-rule="nonzero"/></clipPath><clipPath id="id15"><path d="M 3579.25 631.121094 L 3819.25 631.121094 L 3819.25 717.371094 L 3579.25 717.371094 Z M 3579.25 631.121094 " clip-rule="nonzero"/></clipPath><clipPath id="id16"><path d="M 4340.746094 499.546875 L 4552.996094 499.546875 L 4552.996094 860.296875 L 4340.746094 860.296875 Z M 4340.746094 499.546875 " clip-rule="nonzero"/></clipPath><clipPath id="id17"><path d="M 4514.039062 697.375 L 4908.539062 697.375 L 4908.539062 860.125 L 4514.039062 860.125 Z M 4514.039062 697.375 " clip-rule="nonzero"/></clipPath><clipPath id="id18"><path d="M 4671 661 L 4776 661 L 4776 767 L 4671 767 Z M 4671 661 " clip-rule="nonzero"/></clipPath><clipPath id="id19"><path d="M 4671.152344 718.546875 L 4722.472656 661.816406 L 4775.308594 709.613281 L 4723.988281 766.34375 Z M 4671.152344 718.546875 " clip-rule="nonzero"/></clipPath><clipPath id="id20"><path d="M 4477 661 L 4582 661 L 4582 767 L 4477 767 Z M 4477 661 " clip-rule="nonzero"/></clipPath><clipPath id="id21"><path d="M 4530.910156 661.824219 L 4581.972656 718.789062 L 4528.917969 766.34375 L 4477.855469 709.378906 Z M 4530.910156 661.824219 " clip-rule="nonzero"/></clipPath><clipPath id="id22"><path d="M 4697.066406 499.347656 L 4909.316406 499.347656 L 4909.316406 860.097656 L 4697.066406 860.097656 Z M 4697.066406 499.347656 " clip-rule="nonzero"/></clipPath><clipPath id="id23"><path d="M 3889.320312 263.796875 L 4909.320312 263.796875 L 4909.320312 443.046875 L 3889.320312 443.046875 Z M 3889.320312 263.796875 " clip-rule="nonzero"/></clipPath><clipPath id="id24"><path d="M 690.519531 258.277344 L 1268.019531 258.277344 L 1268.019531 432.277344 L 690.519531 432.277344 Z M 690.519531 258.277344 " clip-rule="nonzero"/></clipPath><clipPath id="id25"><path d="M 624.070312 258.277344 L 708.070312 258.277344 L 708.070312 319.777344 L 624.070312 319.777344 Z M 624.070312 258.277344 " clip-rule="nonzero"/></clipPath><clipPath id="id26"><path d="M 562.636719 376.886719 L 718.636719 376.886719 L 718.636719 438.386719 L 562.636719 438.386719 Z M 562.636719 376.886719 " clip-rule="nonzero"/></clipPath><clipPath id="id27"><path d="M 713.476562 399.425781 L 765.976562 399.425781 L 765.976562 498.425781 L 713.476562 498.425781 Z M 713.476562 399.425781 " clip-rule="nonzero"/></clipPath><clipPath id="id28"><path d="M 741.300781 258.277344 L 949.050781 258.277344 L 949.050781 861.277344 L 741.300781 861.277344 Z M 741.300781 258.277344 " clip-rule="nonzero"/></clipPath><clipPath id="id29"><path d="M 732.257812 696.867188 L 1274.507812 696.867188 L 1274.507812 863.367188 L 732.257812 863.367188 Z M 732.257812 696.867188 " clip-rule="nonzero"/></clipPath><clipPath id="id30"><path d="M 742.777344 514.347656 L 1147.027344 514.347656 L 1147.027344 626.847656 L 742.777344 626.847656 Z M 742.777344 514.347656 " clip-rule="nonzero"/></clipPath><clipPath id="id31"><path d="M 623.320312 560.707031 L 749.320312 560.707031 L 749.320312 620.707031 L 623.320312 620.707031 Z M 623.320312 560.707031 " clip-rule="nonzero"/></clipPath><clipPath id="id32"><path d="M 688.683594 689.351562 L 742.683594 689.351562 L 742.683594 800.351562 L 688.683594 800.351562 Z M 688.683594 689.351562 " clip-rule="nonzero"/></clipPath><clipPath id="id33"><path d="M 624.738281 689.351562 L 704.238281 689.351562 L 704.238281 741.851562 L 624.738281 741.851562 Z M 624.738281 689.351562 " clip-rule="nonzero"/></clipPath><clipPath id="id34"><path d="M 4053.644531 270.921875 L 4283.144531 270.921875 L 4283.144531 860.421875 L 4053.644531 860.421875 Z M 4053.644531 270.921875 " clip-rule="nonzero"/></clipPath><clipPath id="id35"><path d="M 4022 370 L 4127 370 L 4127 476 L 4022 476 Z M 4022 370 " clip-rule="nonzero"/></clipPath><clipPath id="id36"><path d="M 4075.835938 370.917969 L 4126.894531 427.882812 L 4073.839844 475.441406 L 4022.777344 418.476562 Z M 4075.835938 370.917969 " clip-rule="nonzero"/></clipPath><clipPath id="id37"><path d="M 4204 373 L 4309 373 L 4309 478 L 4204 478 Z M 4204 373 " clip-rule="nonzero"/></clipPath><clipPath id="id38"><path d="M 4257.164062 373.449219 L 4308.226562 430.414062 L 4255.171875 477.972656 L 4204.109375 421.007812 Z M 4257.164062 373.449219 " clip-rule="nonzero"/></clipPath><clipPath id="id39"><path d="M 3564 372 L 3669 372 L 3669 478 L 3564 478 Z M 3564 372 " clip-rule="nonzero"/></clipPath><clipPath id="id40"><path d="M 3617.46875 372.699219 L 3668.527344 429.664062 L 3615.472656 477.222656 L 3564.410156 420.257812 Z M 3617.46875 372.699219 " clip-rule="nonzero"/></clipPath><clipPath id="id41"><path d="M 3382 350 L 3487 350 L 3487 456 L 3382 456 Z M 3382 350 " clip-rule="nonzero"/></clipPath><clipPath id="id42"><path d="M 3435.386719 350.882812 L 3486.445312 407.847656 L 3433.390625 455.402344 L 3382.332031 398.4375 Z M 3435.386719 350.882812 " clip-rule="nonzero"/></clipPath><clipPath id="id43"><path d="M 3377 661 L 3482 661 L 3482 767 L 3377 767 Z M 3377 661 " clip-rule="nonzero"/></clipPath><clipPath id="id44"><path d="M 3430.707031 661.816406 L 3481.769531 718.78125 L 3428.714844 766.335938 L 3377.652344 709.371094 Z M 3430.707031 661.816406 " clip-rule="nonzero"/></clipPath><clipPath id="id45"><path d="M 3557 663 L 3662 663 L 3662 769 L 3557 769 Z M 3557 663 " clip-rule="nonzero"/></clipPath><clipPath id="id46"><path d="M 3610.71875 663.523438 L 3661.777344 720.488281 L 3608.722656 768.046875 L 3557.660156 711.082031 Z M 3610.71875 663.523438 " clip-rule="nonzero"/></clipPath><clipPath id="id47"><path d="M 2750 344 L 2855 344 L 2855 450 L 2750 450 Z M 2750 344 " clip-rule="nonzero"/></clipPath><clipPath id="id48"><path d="M 2803.65625 344.519531 L 2854.714844 401.484375 L 2801.660156 449.042969 L 2750.601562 392.078125 Z M 2803.65625 344.519531 " clip-rule="nonzero"/></clipPath><clipPath id="id49"><path d="M 2738 477 L 2843 477 L 2843 582 L 2738 582 Z M 2738 477 " clip-rule="nonzero"/></clipPath><clipPath id="id50"><path d="M 2791.65625 477.191406 L 2842.714844 534.15625 L 2789.660156 581.710938 L 2738.601562 524.746094 Z M 2791.65625 477.191406 " clip-rule="nonzero"/></clipPath><clipPath id="id51"><path d="M 2755 533 L 2860 533 L 2860 639 L 2755 639 Z M 2755 533 " clip-rule="nonzero"/></clipPath><clipPath id="id52"><path d="M 2808.15625 533.703125 L 2859.214844 590.667969 L 2806.160156 638.226562 L 2755.101562 581.261719 Z M 2808.15625 533.703125 " clip-rule="nonzero"/></clipPath><clipPath id="id53"><path d="M 2739 663 L 2844 663 L 2844 769 L 2739 769 Z M 2739 663 " clip-rule="nonzero"/></clipPath><clipPath id="id54"><path d="M 2792.40625 663.523438 L 2843.464844 720.488281 L 2790.410156 768.046875 L 2739.351562 711.082031 Z M 2792.40625 663.523438 " clip-rule="nonzero"/></clipPath><clipPath id="id55"><path d="M 2129 480 L 2234 480 L 2234 585 L 2129 585 Z M 2129 480 " clip-rule="nonzero"/></clipPath><clipPath id="id56"><path d="M 2182.730469 480.324219 L 2233.792969 537.289062 L 2180.734375 584.84375 L 2129.675781 527.878906 Z M 2182.730469 480.324219 " clip-rule="nonzero"/></clipPath><clipPath id="id57"><path d="M 2143 340 L 2249 340 L 2249 446 L 2143 446 Z M 2143 340 " clip-rule="nonzero"/></clipPath><clipPath id="id58"><path d="M 2196.980469 340.71875 L 2248.042969 397.683594 L 2194.984375 445.238281 L 2143.925781 388.273438 Z M 2196.980469 340.71875 " clip-rule="nonzero"/></clipPath><clipPath id="id59"><path d="M 1501 356 L 1607 356 L 1607 462 L 1501 462 Z M 1501 356 " clip-rule="nonzero"/></clipPath><clipPath id="id60"><path d="M 1555.007812 356.875 L 1606.070312 413.839844 L 1553.015625 461.398438 L 1501.953125 404.433594 Z M 1555.007812 356.875 " clip-rule="nonzero"/></clipPath><clipPath id="id61"><path d="M 1502 476 L 1607 476 L 1607 581 L 1502 581 Z M 1502 476 " clip-rule="nonzero"/></clipPath><clipPath id="id62"><path d="M 1555.757812 476.441406 L 1606.820312 533.40625 L 1553.765625 580.960938 L 1502.703125 523.996094 Z M 1555.757812 476.441406 " clip-rule="nonzero"/></clipPath><clipPath id="id63"><path d="M 878 483 L 983 483 L 983 589 L 878 589 Z M 878 483 " clip-rule="nonzero"/></clipPath><clipPath id="id64"><path d="M 931.90625 483.941406 L 982.96875 540.90625 L 929.914062 588.460938 L 878.851562 531.496094 Z M 931.90625 483.941406 " clip-rule="nonzero"/></clipPath><clipPath id="id65"><path d="M 890 344 L 995 344 L 995 449 L 890 449 Z M 890 344 " clip-rule="nonzero"/></clipPath><clipPath id="id66"><path d="M 943.601562 344.210938 L 994.660156 401.175781 L 941.605469 448.730469 L 890.546875 391.765625 Z M 943.601562 344.210938 " clip-rule="nonzero"/></clipPath><clipPath id="id67"><path d="M 889 537 L 994 537 L 994 643 L 889 643 Z M 889 537 " clip-rule="nonzero"/></clipPath><clipPath id="id68"><path d="M 942.101562 537.683594 L 993.160156 594.648438 L 940.105469 642.207031 L 889.046875 585.242188 Z M 942.101562 537.683594 " clip-rule="nonzero"/></clipPath><clipPath id="id69"><path d="M 862 651 L 967 651 L 967 756 L 862 756 Z M 862 651 " clip-rule="nonzero"/></clipPath><clipPath id="id70"><path d="M 915.40625 651.175781 L 966.46875 708.140625 L 913.414062 755.695312 L 862.351562 698.730469 Z M 915.40625 651.175781 " clip-rule="nonzero"/></clipPath><clipPath id="id71"><path d="M 689 681 L 794 681 L 794 787 L 689 787 Z M 689 681 " clip-rule="nonzero"/></clipPath><clipPath id="id72"><path d="M 742.273438 681.84375 L 793.335938 738.808594 L 740.28125 786.363281 L 689.21875 729.398438 Z M 742.273438 681.84375 " clip-rule="nonzero"/></clipPath><clipPath id="id73"><path d="M 711 546 L 816 546 L 816 652 L 711 652 Z M 711 546 " clip-rule="nonzero"/></clipPath><clipPath id="id74"><path d="M 764.773438 546.683594 L 815.835938 603.648438 L 762.78125 651.207031 L 711.71875 594.242188 Z M 764.773438 546.683594 " clip-rule="nonzero"/></clipPath><clipPath id="id75"><path d="M 716 527 L 821 527 L 821 632 L 716 632 Z M 716 527 " clip-rule="nonzero"/></clipPath><clipPath id="id76"><path d="M 769.5 527.183594 L 820.5625 584.148438 L 767.503906 631.707031 L 716.445312 574.742188 Z M 769.5 527.183594 " clip-rule="nonzero"/></clipPath><clipPath id="id77"><path d="M 729 444 L 834 444 L 834 550 L 729 550 Z M 729 444 " clip-rule="nonzero"/></clipPath><clipPath id="id78"><path d="M 782.25 444.675781 L 833.3125 501.640625 L 780.253906 549.199219 L 729.195312 492.234375 Z M 782.25 444.675781 " clip-rule="nonzero"/></clipPath><clipPath id="id79"><path d="M 690 373 L 795 373 L 795 478 L 690 478 Z M 690 373 " clip-rule="nonzero"/></clipPath><clipPath id="id80"><path d="M 743.75 373.449219 L 794.8125 430.414062 L 741.757812 477.972656 L 690.695312 421.007812 Z M 743.75 373.449219 " clip-rule="nonzero"/></clipPath><clipPath id="id81"><path d="M 677 334 L 782 334 L 782 439 L 677 439 Z M 677 334 " clip-rule="nonzero"/></clipPath><clipPath id="id82"><path d="M 730.210938 334.003906 L 781.269531 390.96875 L 728.214844 438.523438 L 677.152344 381.558594 Z M 730.210938 334.003906 " clip-rule="nonzero"/></clipPath><clipPath id="id83"><path d="M 670 256 L 775 256 L 775 362 L 670 362 Z M 670 256 " clip-rule="nonzero"/></clipPath><clipPath id="id84"><path d="M 723.460938 256.773438 L 774.519531 313.738281 L 721.464844 361.296875 L 670.402344 304.332031 Z M 723.460938 256.773438 " clip-rule="nonzero"/></clipPath><clipPath id="id85"><path d="M 618.855469 258.277344 L 747.105469 258.277344 L 747.105469 319.777344 L 618.855469 319.777344 Z M 618.855469 258.277344 " clip-rule="nonzero"/></clipPath><clipPath id="id86"><path d="M 444.976562 261.136719 L 573.226562 261.136719 L 573.226562 322.636719 L 444.976562 322.636719 Z M 444.976562 261.136719 " clip-rule="nonzero"/></clipPath><clipPath id="id87"><path d="M 374.75 376.886719 L 503 376.886719 L 503 438.386719 L 374.75 438.386719 Z M 374.75 376.886719 " clip-rule="nonzero"/></clipPath><clipPath id="id88"><path d="M 559.101562 376.886719 L 687.351562 376.886719 L 687.351562 438.386719 L 559.101562 438.386719 Z M 559.101562 376.886719 " clip-rule="nonzero"/></clipPath><clipPath id="id89"><path d="M 450.226562 492.496094 L 579.976562 492.496094 L 579.976562 556.996094 L 450.226562 556.996094 Z M 450.226562 492.496094 " clip-rule="nonzero"/></clipPath><clipPath id="id90"><path d="M 376.671875 622.480469 L 557.421875 622.480469 L 557.421875 680.230469 L 376.671875 680.230469 Z M 376.671875 622.480469 " clip-rule="nonzero"/></clipPath><clipPath id="id91"><path d="M 468.601562 741.390625 L 564.601562 741.390625 L 564.601562 802.140625 L 468.601562 802.140625 Z M 468.601562 741.390625 " clip-rule="nonzero"/></clipPath><clipPath id="id92"><path d="M 593.265625 809.550781 L 657.765625 809.550781 L 657.765625 863.550781 L 593.265625 863.550781 Z M 593.265625 809.550781 " clip-rule="nonzero"/></clipPath><clipPath id="id93"><path d="M 680 688 L 785 688 L 785 793 L 680 793 Z M 680 688 " clip-rule="nonzero"/></clipPath><clipPath id="id94"><path d="M 733.234375 688.253906 L 784.292969 745.21875 L 731.238281 792.773438 L 680.175781 735.808594 Z M 733.234375 688.253906 " clip-rule="nonzero"/></clipPath><clipPath id="id95"><path d="M 705 726 L 810 726 L 810 831 L 705 831 Z M 705 726 " clip-rule="nonzero"/></clipPath><clipPath id="id96"><path d="M 758.140625 726.117188 L 809.203125 783.082031 L 756.148438 830.636719 L 705.085938 773.671875 Z M 758.140625 726.117188 " clip-rule="nonzero"/></clipPath><clipPath id="id97"><path d="M 4978.890625 263.917969 L 5185.140625 263.917969 L 5185.140625 621.667969 L 4978.890625 621.667969 Z M 4978.890625 263.917969 " clip-rule="nonzero"/></clipPath><clipPath id="id98"><path d="M 5381.046875 490.792969 L 5586.546875 490.792969 L 5586.546875 859.792969 L 5381.046875 859.792969 Z M 5381.046875 490.792969 " clip-rule="nonzero"/></clipPath><clipPath id="id99"><path d="M 4980.394531 263.199219 L 5583.394531 263.199219 L 5583.394531 395.949219 L 4980.394531 395.949219 Z M 4980.394531 263.199219 " clip-rule="nonzero"/></clipPath><clipPath id="id100"><path d="M 4983.441406 488.824219 L 5586.441406 488.824219 L 5586.441406 621.574219 L 4983.441406 621.574219 Z M 4983.441406 488.824219 " clip-rule="nonzero"/></clipPath><clipPath id="id101"><path d="M 4978.890625 727.800781 L 5581.890625 727.800781 L 5581.890625 860.550781 L 4978.890625 860.550781 Z M 4978.890625 727.800781 " clip-rule="nonzero"/></clipPath><clipPath id="id102"><path d="M 5109 321 L 5214 321 L 5214 427 L 5109 427 Z M 5109 321 " clip-rule="nonzero"/></clipPath><clipPath id="id103"><path d="M 5162.40625 321.898438 L 5213.46875 378.863281 L 5160.414062 426.421875 L 5109.351562 369.457031 Z M 5162.40625 321.898438 " clip-rule="nonzero"/></clipPath><clipPath id="id104"><path d="M 5092 436 L 5197 436 L 5197 542 L 5092 542 Z M 5092 436 " clip-rule="nonzero"/></clipPath><clipPath id="id105"><path d="M 5145.90625 436.578125 L 5196.96875 493.542969 L 5143.914062 541.101562 L 5092.851562 484.136719 Z M 5145.90625 436.578125 " clip-rule="nonzero"/></clipPath><clipPath id="id106"><path d="M 5351 549 L 5456 549 L 5456 654 L 5351 654 Z M 5351 549 " clip-rule="nonzero"/></clipPath><clipPath id="id107"><path d="M 5404.050781 549.167969 L 5455.113281 606.132812 L 5402.058594 653.6875 L 5350.996094 596.722656 Z M 5404.050781 549.167969 " clip-rule="nonzero"/></clipPath><clipPath id="id108"><path d="M 5351 699 L 5456 699 L 5456 804 L 5351 804 Z M 5351 699 " clip-rule="nonzero"/></clipPath><clipPath id="id109"><path d="M 5404.050781 699.324219 L 5455.113281 756.289062 L 5402.058594 803.84375 L 5350.996094 746.878906 Z M 5404.050781 699.324219 " clip-rule="nonzero"/></clipPath></defs><g clip-path="url(#id1)"><path fill="#ffffff" d="M 1344.472656 259.777344 L 1344.472656 428.527344 L 1899.472656 428.527344 L 1899.472656 259.777344 Z M 1344.472656 259.777344 " fill-opacity="1" fill-rule="nonzero"/></g><g clip-path="url(#id2)"><path fill="#ffffff" d="M 1344.472656 423.914062 L 1344.472656 861.914062 L 1579.972656 861.914062 L 1579.972656 423.914062 Z M 1344.472656 423.914062 " fill-opacity="1" fill-rule="nonzero"/></g><g clip-path="url(#id3)"><path fill="#ffffff" d="M 1576.855469 514.347656 L 1576.855469 617.847656 L 1783.105469 617.847656 L 1783.105469 514.347656 Z M 1576.855469 514.347656 " fill-opacity="1" fill-rule="nonzero"/></g><g clip-path="url(#id4)"><path fill="#ffffff" d="M 1969.074219 259.777344 L 1969.074219 428.527344 L 2524.074219 428.527344 L 2524.074219 259.777344 Z M 1969.074219 259.777344 " fill-opacity="1" fill-rule="nonzero"/></g><g clip-path="url(#id5)"><path fill="#ffffff" d="M 1969.074219 423.914062 L 1969.074219 861.914062 L 2204.574219 861.914062 L 2204.574219 423.914062 Z M 1969.074219 423.914062 " fill-opacity="1" fill-rule="nonzero"/></g><g clip-path="url(#id6)"><path fill="#ffffff" d="M 2201.457031 515.097656 L 2201.457031 618.597656 L 2407.707031 618.597656 L 2407.707031 515.097656 Z M 2201.457031 515.097656 " fill-opacity="1" fill-rule="nonzero"/></g><g clip-path="url(#id7)"><path fill="#ffffff" d="M 2593.046875 261.910156 L 2593.046875 864.738281 L 2813.546875 864.738281 L 2813.546875 261.910156 Z M 2593.046875 261.910156 " fill-opacity="1" fill-rule="nonzero"/></g><g clip-path="url(#id8)"><path fill="#ffffff" d="M 2593.796875 261.910156 L 2593.796875 430.660156 L 3148.796875 430.660156 L 3148.796875 261.910156 Z M 2593.796875 261.910156 " fill-opacity="1" fill-rule="nonzero"/></g><g clip-path="url(#id9)"><path fill="#ffffff" d="M 2593.046875 697.554688 L 2593.046875 866.304688 L 3148.046875 866.304688 L 3148.046875 697.554688 Z M 2593.046875 697.554688 " fill-opacity="1" fill-rule="nonzero"/></g><g clip-path="url(#id10)"><path fill="#ffffff" d="M 2761.113281 512.789062 L 2761.113281 622.289062 L 3021.363281 622.289062 L 3021.363281 512.789062 Z M 2761.113281 512.789062 " fill-opacity="1" fill-rule="nonzero"/></g><g clip-path="url(#id11)"><path fill="#ffffff" d="M 3219.148438 263.796875 L 3219.148438 427.296875 L 3819.898438 427.296875 L 3819.898438 263.796875 Z M 3219.148438 263.796875 " fill-opacity="1" fill-rule="nonzero"/></g><g clip-path="url(#id12)"><path fill="#ffffff" d="M 3218.398438 699.871094 L 3218.398438 865.621094 L 3819.898438 865.621094 L 3819.898438 699.871094 Z M 3218.398438 699.871094 " fill-opacity="1" fill-rule="nonzero"/></g><g clip-path="url(#id13)"><path fill="#ffffff" d="M 3218.398438 422.414062 L 3218.398438 727.664062 L 3454.648438 727.664062 L 3454.648438 422.414062 Z M 3218.398438 422.414062 " fill-opacity="1" fill-rule="nonzero"/></g><g clip-path="url(#id14)"><path fill="#ffffff" d="M 3579.25 414.425781 L 3579.25 500.675781 L 3819.25 500.675781 L 3819.25 414.425781 Z M 3579.25 414.425781 " fill-opacity="1" fill-rule="nonzero"/></g><g clip-path="url(#id15)"><path fill="#ffffff" d="M 3579.25 631.121094 L 3579.25 717.371094 L 3819.25 717.371094 L 3819.25 631.121094 Z M 3579.25 631.121094 " fill-opacity="1" fill-rule="nonzero"/></g><g clip-path="url(#id16)"><path fill="#ffffff" d="M 4340.746094 499.546875 L 4340.746094 860.296875 L 4552.996094 860.296875 L 4552.996094 499.546875 Z M 4340.746094 499.546875 " fill-opacity="1" fill-rule="nonzero"/></g><g clip-path="url(#id17)"><path fill="#ffffff" d="M 4514.039062 697.375 L 4514.039062 860.125 L 4908.539062 860.125 L 4908.539062 697.375 Z M 4514.039062 697.375 " fill-opacity="1" fill-rule="nonzero"/></g><g clip-path="url(#id18)"><g clip-path="url(#id19)"><path fill="#ffffff" d="M 4671.15625 718.542969 L 4722.46875 661.820312 L 4775.304688 709.617188 L 4723.992188 766.339844 L 4671.15625 718.542969 " fill-opacity="1" fill-rule="nonzero"/></g></g><g clip-path="url(#id20)"><g clip-path="url(#id21)"><path fill="#ffffff" d="M 4530.914062 661.828125 L 4581.96875 718.785156 L 4528.914062 766.339844 L 4477.859375 709.382812 L 4530.914062 661.828125 " fill-opacity="1" fill-rule="nonzero"/></g></g><g clip-path="url(#id22)"><path fill="#ffffff" d="M 4697.066406 499.347656 L 4697.066406 860.097656 L 4909.316406 860.097656 L 4909.316406 499.347656 Z M 4697.066406 499.347656 " fill-opacity="1" fill-rule="nonzero"/></g><g clip-path="url(#id23)"><path fill="#ffffff" d="M 3889.320312 263.796875 L 3889.320312 443.046875 L 4909.320312 443.046875 L 4909.320312 263.796875 Z M 3889.320312 263.796875 " fill-opacity="1" fill-rule="nonzero"/></g><g clip-path="url(#id24)"><path fill="#ffffff" d="M 690.519531 258.277344 L 690.519531 432.277344 L 1268.019531 432.277344 L 1268.019531 258.277344 Z M 690.519531 258.277344 " fill-opacity="1" fill-rule="nonzero"/></g><g clip-path="url(#id25)"><path fill="#ffffff" d="M 624.070312 258.277344 L 624.070312 319.777344 L 708.070312 319.777344 L 708.070312 258.277344 Z M 624.070312 258.277344 " fill-opacity="1" fill-rule="nonzero"/></g><g clip-path="url(#id26)"><path fill="#ffffff" d="M 562.636719 376.886719 L 562.636719 438.386719 L 718.636719 438.386719 L 718.636719 376.886719 Z M 562.636719 376.886719 " fill-opacity="1" fill-rule="nonzero"/></g><g clip-path="url(#id27)"><path fill="#ffffff" d="M 713.476562 399.425781 L 713.476562 498.425781 L 765.976562 498.425781 L 765.976562 399.425781 Z M 713.476562 399.425781 " fill-opacity="1" fill-rule="nonzero"/></g><g clip-path="url(#id28)"><path fill="#ffffff" d="M 741.300781 258.277344 L 741.300781 861.277344 L 949.050781 861.277344 L 949.050781 258.277344 Z M 741.300781 258.277344 " fill-opacity="1" fill-rule="nonzero"/></g><g clip-path="url(#id29)"><path fill="#ffffff" d="M 732.257812 696.867188 L 732.257812 863.367188 L 1274.507812 863.367188 L 1274.507812 696.867188 Z M 732.257812 696.867188 " fill-opacity="1" fill-rule="nonzero"/></g><g clip-path="url(#id30)"><path fill="#ffffff" d="M 742.777344 514.347656 L 742.777344 626.847656 L 1147.027344 626.847656 L 1147.027344 514.347656 Z M 742.777344 514.347656 " fill-opacity="1" fill-rule="nonzero"/></g><g clip-path="url(#id31)"><path fill="#ffffff" d="M 623.320312 560.707031 L 623.320312 620.707031 L 749.320312 620.707031 L 749.320312 560.707031 Z M 623.320312 560.707031 " fill-opacity="1" fill-rule="nonzero"/></g><g clip-path="url(#id32)"><path fill="#ffffff" d="M 688.683594 689.351562 L 688.683594 800.351562 L 742.683594 800.351562 L 742.683594 689.351562 Z M 688.683594 689.351562 " fill-opacity="1" fill-rule="nonzero"/></g><g clip-path="url(#id33)"><path fill="#ffffff" d="M 624.738281 689.351562 L 624.738281 741.851562 L 704.238281 741.851562 L 704.238281 689.351562 Z M 624.738281 689.351562 " fill-opacity="1" fill-rule="nonzero"/></g><g clip-path="url(#id34)"><path fill="#ffffff" d="M 4053.644531 270.921875 L 4053.644531 860.421875 L 4283.144531 860.421875 L 4283.144531 270.921875 Z M 4053.644531 270.921875 " fill-opacity="1" fill-rule="nonzero"/></g><g clip-path="url(#id35)"><g clip-path="url(#id36)"><path fill="#ffffff" d="M 4075.839844 370.921875 L 4126.890625 427.878906 L 4073.835938 475.4375 L 4022.78125 418.480469 L 4075.839844 370.921875 " fill-opacity="1" fill-rule="nonzero"/></g></g><g clip-path="url(#id37)"><g clip-path="url(#id38)"><path fill="#ffffff" d="M 4257.167969 373.453125 L 4308.222656 430.410156 L 4255.167969 477.96875 L 4204.113281 421.011719 L 4257.167969 373.453125 " fill-opacity="1" fill-rule="nonzero"/></g></g><g clip-path="url(#id39)"><g clip-path="url(#id40)"><path fill="#ffffff" d="M 3617.472656 372.703125 L 3668.523438 429.660156 L 3615.46875 477.21875 L 3564.414062 420.261719 L 3617.472656 372.703125 " fill-opacity="1" fill-rule="nonzero"/></g></g><g clip-path="url(#id41)"><g clip-path="url(#id42)"><path fill="#ffffff" d="M 3435.390625 350.886719 L 3486.441406 407.84375 L 3433.386719 455.398438 L 3382.335938 398.445312 L 3435.390625 350.886719 " fill-opacity="1" fill-rule="nonzero"/></g></g><g clip-path="url(#id43)"><g clip-path="url(#id44)"><path fill="#ffffff" d="M 3430.710938 661.820312 L 3481.765625 718.777344 L 3428.710938 766.332031 L 3377.65625 709.375 L 3430.710938 661.820312 " fill-opacity="1" fill-rule="nonzero"/></g></g><g clip-path="url(#id45)"><g clip-path="url(#id46)"><path fill="#ffffff" d="M 3610.722656 663.527344 L 3661.773438 720.484375 L 3608.71875 768.042969 L 3557.664062 711.085938 L 3610.722656 663.527344 " fill-opacity="1" fill-rule="nonzero"/></g></g><g clip-path="url(#id47)"><g clip-path="url(#id48)"><path fill="#ffffff" d="M 2803.660156 344.523438 L 2854.714844 401.480469 L 2801.65625 449.039062 L 2750.605469 392.082031 L 2803.660156 344.523438 " fill-opacity="1" fill-rule="nonzero"/></g></g><g clip-path="url(#id49)"><g clip-path="url(#id50)"><path fill="#ffffff" d="M 2791.660156 477.195312 L 2842.714844 534.148438 L 2789.65625 581.707031 L 2738.605469 524.75 L 2791.660156 477.195312 " fill-opacity="1" fill-rule="nonzero"/></g></g><g clip-path="url(#id51)"><g clip-path="url(#id52)"><path fill="#ffffff" d="M 2808.160156 533.707031 L 2859.214844 590.664062 L 2806.15625 638.222656 L 2755.105469 581.265625 L 2808.160156 533.707031 " fill-opacity="1" fill-rule="nonzero"/></g></g><g clip-path="url(#id53)"><g clip-path="url(#id54)"><path fill="#ffffff" d="M 2792.410156 663.527344 L 2843.464844 720.484375 L 2790.40625 768.042969 L 2739.355469 711.085938 L 2792.410156 663.527344 " fill-opacity="1" fill-rule="nonzero"/></g></g><g clip-path="url(#id55)"><g clip-path="url(#id56)"><path fill="#ffffff" d="M 2182.734375 480.328125 L 2233.789062 537.285156 L 2180.730469 584.839844 L 2129.679688 527.882812 L 2182.734375 480.328125 " fill-opacity="1" fill-rule="nonzero"/></g></g><g clip-path="url(#id57)"><g clip-path="url(#id58)"><path fill="#ffffff" d="M 2196.984375 340.722656 L 2248.039062 397.675781 L 2194.980469 445.234375 L 2143.929688 388.277344 L 2196.984375 340.722656 " fill-opacity="1" fill-rule="nonzero"/></g></g><g clip-path="url(#id59)"><g clip-path="url(#id60)"><path fill="#ffffff" d="M 1555.011719 356.878906 L 1606.066406 413.835938 L 1553.011719 461.394531 L 1501.957031 404.4375 L 1555.011719 356.878906 " fill-opacity="1" fill-rule="nonzero"/></g></g><g clip-path="url(#id61)"><g clip-path="url(#id62)"><path fill="#ffffff" d="M 1555.761719 476.445312 L 1606.816406 533.398438 L 1553.761719 580.957031 L 1502.707031 524 L 1555.761719 476.445312 " fill-opacity="1" fill-rule="nonzero"/></g></g><g clip-path="url(#id63)"><g clip-path="url(#id64)"><path fill="#ffffff" d="M 931.910156 483.945312 L 982.964844 540.898438 L 929.910156 588.457031 L 878.855469 531.5 L 931.910156 483.945312 " fill-opacity="1" fill-rule="nonzero"/></g></g><g clip-path="url(#id65)"><g clip-path="url(#id66)"><path fill="#ffffff" d="M 943.605469 344.214844 L 994.65625 401.171875 L 941.601562 448.726562 L 890.550781 391.769531 L 943.605469 344.214844 " fill-opacity="1" fill-rule="nonzero"/></g></g><g clip-path="url(#id67)"><g clip-path="url(#id68)"><path fill="#ffffff" d="M 942.105469 537.6875 L 993.15625 594.644531 L 940.101562 642.203125 L 889.050781 585.246094 L 942.105469 537.6875 " fill-opacity="1" fill-rule="nonzero"/></g></g><g clip-path="url(#id69)"><g clip-path="url(#id70)"><path fill="#ffffff" d="M 915.410156 651.179688 L 966.464844 708.136719 L 913.410156 755.691406 L 862.355469 698.734375 L 915.410156 651.179688 " fill-opacity="1" fill-rule="nonzero"/></g></g><g clip-path="url(#id71)"><g clip-path="url(#id72)"><path fill="#ffffff" d="M 742.277344 681.847656 L 793.332031 738.804688 L 740.277344 786.359375 L 689.222656 729.40625 L 742.277344 681.847656 " fill-opacity="1" fill-rule="nonzero"/></g></g><g clip-path="url(#id73)"><g clip-path="url(#id74)"><path fill="#ffffff" d="M 764.777344 546.6875 L 815.832031 603.644531 L 762.777344 651.203125 L 711.722656 594.246094 L 764.777344 546.6875 " fill-opacity="1" fill-rule="nonzero"/></g></g><g clip-path="url(#id75)"><g clip-path="url(#id76)"><path fill="#ffffff" d="M 769.503906 527.1875 L 820.558594 584.144531 L 767.5 631.703125 L 716.449219 574.746094 L 769.503906 527.1875 " fill-opacity="1" fill-rule="nonzero"/></g></g><g clip-path="url(#id77)"><g clip-path="url(#id78)"><path fill="#ffffff" d="M 782.253906 444.679688 L 833.308594 501.636719 L 780.25 549.195312 L 729.199219 492.238281 L 782.253906 444.679688 " fill-opacity="1" fill-rule="nonzero"/></g></g><g clip-path="url(#id79)"><g clip-path="url(#id80)"><path fill="#ffffff" d="M 743.753906 373.453125 L 794.808594 430.410156 L 741.753906 477.96875 L 690.699219 421.011719 L 743.753906 373.453125 " fill-opacity="1" fill-rule="nonzero"/></g></g><g clip-path="url(#id81)"><g clip-path="url(#id82)"><path fill="#ffffff" d="M 730.214844 334.007812 L 781.265625 390.964844 L 728.210938 438.519531 L 677.15625 381.5625 L 730.214844 334.007812 " fill-opacity="1" fill-rule="nonzero"/></g></g><g clip-path="url(#id83)"><g clip-path="url(#id84)"><path fill="#ffffff" d="M 723.464844 256.777344 L 774.515625 313.734375 L 721.460938 361.292969 L 670.40625 304.335938 L 723.464844 256.777344 " fill-opacity="1" fill-rule="nonzero"/></g></g><g clip-path="url(#id85)"><path fill="#ffffff" d="M 738.765625 319.777344 L 627.195312 319.777344 C 622.601562 319.777344 618.855469 316.027344 618.855469 311.425781 L 618.855469 266.628906 C 618.855469 262.027344 622.601562 258.277344 627.195312 258.277344 L 738.765625 258.277344 C 743.359375 258.277344 747.105469 262.027344 747.105469 266.628906 L 747.105469 311.425781 C 747.105469 316.027344 743.359375 319.777344 738.765625 319.777344 " fill-opacity="1" fill-rule="nonzero"/></g><g clip-path="url(#id86)"><path fill="#ffffff" d="M 564.886719 322.636719 L 453.316406 322.636719 C 448.722656 322.636719 444.976562 318.886719 444.976562 314.285156 L 444.976562 269.488281 C 444.976562 264.886719 448.722656 261.136719 453.316406 261.136719 L 564.886719 261.136719 C 569.484375 261.136719 573.226562 264.886719 573.226562 269.488281 L 573.226562 314.285156 C 573.226562 318.886719 569.484375 322.636719 564.886719 322.636719 " fill-opacity="1" fill-rule="nonzero"/></g><g clip-path="url(#id87)"><path fill="#ffffff" d="M 494.660156 438.386719 L 383.09375 438.386719 C 378.496094 438.386719 374.75 434.636719 374.75 430.039062 L 374.75 385.238281 C 374.75 380.636719 378.496094 376.886719 383.09375 376.886719 L 494.660156 376.886719 C 499.257812 376.886719 503 380.636719 503 385.238281 L 503 430.039062 C 503 434.636719 499.257812 438.386719 494.660156 438.386719 " fill-opacity="1" fill-rule="nonzero"/></g><g clip-path="url(#id88)"><path fill="#ffffff" d="M 679.011719 438.386719 L 567.441406 438.386719 C 562.847656 438.386719 559.101562 434.636719 559.101562 430.039062 L 559.101562 385.238281 C 559.101562 380.636719 562.847656 376.886719 567.441406 376.886719 L 679.011719 376.886719 C 683.609375 376.886719 687.351562 380.636719 687.351562 385.238281 L 687.351562 430.039062 C 687.351562 434.636719 683.609375 438.386719 679.011719 438.386719 " fill-opacity="1" fill-rule="nonzero"/></g><g clip-path="url(#id89)"><path fill="#ffffff" d="M 571.636719 556.992188 L 458.566406 556.992188 C 453.972656 556.992188 450.226562 553.246094 450.226562 548.644531 L 450.226562 500.84375 C 450.226562 496.242188 453.972656 492.496094 458.566406 492.496094 L 571.636719 492.496094 C 576.234375 492.496094 579.976562 496.242188 579.976562 500.84375 L 579.976562 548.644531 C 579.976562 553.246094 576.234375 556.992188 571.636719 556.992188 " fill-opacity="1" fill-rule="nonzero"/></g><g clip-path="url(#id90)"><path fill="#ffffff" d="M 549.078125 680.230469 L 385.015625 680.230469 C 380.417969 680.230469 376.671875 676.480469 376.671875 671.878906 L 376.671875 630.828125 C 376.671875 626.230469 380.417969 622.480469 385.015625 622.480469 L 549.078125 622.480469 C 553.675781 622.480469 557.421875 626.230469 557.421875 630.828125 L 557.421875 671.878906 C 557.421875 676.480469 553.675781 680.230469 549.078125 680.230469 " fill-opacity="1" fill-rule="nonzero"/></g><g clip-path="url(#id91)"><path fill="#ffffff" d="M 556.265625 802.140625 L 476.9375 802.140625 C 472.347656 802.140625 468.601562 798.390625 468.601562 793.789062 L 468.601562 749.742188 C 468.601562 745.140625 472.347656 741.390625 476.9375 741.390625 L 556.265625 741.390625 C 560.859375 741.390625 564.601562 745.140625 564.601562 749.742188 L 564.601562 793.789062 C 564.601562 798.390625 560.859375 802.140625 556.265625 802.140625 " fill-opacity="1" fill-rule="nonzero"/></g><g clip-path="url(#id92)"><path fill="#ffffff" d="M 649.4375 863.550781 L 601.59375 863.550781 C 597.007812 863.550781 593.265625 859.808594 593.265625 855.210938 L 593.265625 817.894531 C 593.265625 813.296875 597.007812 809.550781 601.59375 809.550781 L 649.4375 809.550781 C 654.023438 809.550781 657.761719 813.296875 657.761719 817.894531 L 657.761719 855.210938 C 657.761719 859.808594 654.023438 863.550781 649.4375 863.550781 " fill-opacity="1" fill-rule="nonzero"/></g><g clip-path="url(#id93)"><g clip-path="url(#id94)"><path fill="#ffffff" d="M 733.238281 688.257812 L 784.289062 745.210938 L 731.234375 792.769531 L 680.179688 735.8125 L 733.238281 688.257812 " fill-opacity="1" fill-rule="nonzero"/></g></g><g clip-path="url(#id95)"><g clip-path="url(#id96)"><path fill="#ffffff" d="M 758.144531 726.121094 L 809.199219 783.078125 L 756.144531 830.632812 L 705.089844 773.675781 L 758.144531 726.121094 " fill-opacity="1" fill-rule="nonzero"/></g></g><g clip-path="url(#id97)"><path fill="#ffffff" d="M 4978.890625 263.917969 L 4978.890625 621.667969 L 5185.140625 621.667969 L 5185.140625 263.917969 Z M 4978.890625 263.917969 " fill-opacity="1" fill-rule="nonzero"/></g><g clip-path="url(#id98)"><path fill="#ffffff" d="M 5381.046875 490.792969 L 5381.046875 859.792969 L 5586.546875 859.792969 L 5586.546875 490.792969 Z M 5381.046875 490.792969 " fill-opacity="1" fill-rule="nonzero"/></g><g clip-path="url(#id99)"><path fill="#ffffff" d="M 4980.394531 263.199219 L 4980.394531 395.949219 L 5583.394531 395.949219 L 5583.394531 263.199219 Z M 4980.394531 263.199219 " fill-opacity="1" fill-rule="nonzero"/></g><g clip-path="url(#id100)"><path fill="#ffffff" d="M 4983.441406 488.824219 L 4983.441406 621.574219 L 5586.441406 621.574219 L 5586.441406 488.824219 Z M 4983.441406 488.824219 " fill-opacity="1" fill-rule="nonzero"/></g><g clip-path="url(#id101)"><path fill="#ffffff" d="M 4978.890625 727.800781 L 4978.890625 860.550781 L 5581.890625 860.550781 L 5581.890625 727.800781 Z M 4978.890625 727.800781 " fill-opacity="1" fill-rule="nonzero"/></g><g clip-path="url(#id102)"><g clip-path="url(#id103)"><path fill="#ffffff" d="M 5162.410156 321.902344 L 5213.464844 378.859375 L 5160.410156 426.417969 L 5109.355469 369.460938 L 5162.410156 321.902344 " fill-opacity="1" fill-rule="nonzero"/></g></g><g clip-path="url(#id104)"><g clip-path="url(#id105)"><path fill="#ffffff" d="M 5145.910156 436.582031 L 5196.964844 493.539062 L 5143.910156 541.097656 L 5092.855469 484.140625 L 5145.910156 436.582031 " fill-opacity="1" fill-rule="nonzero"/></g></g><g clip-path="url(#id106)"><g clip-path="url(#id107)"><path fill="#ffffff" d="M 5404.054688 549.171875 L 5455.109375 606.128906 L 5402.054688 653.683594 L 5351 596.726562 L 5404.054688 549.171875 " fill-opacity="1" fill-rule="nonzero"/></g></g><g clip-path="url(#id108)"><g clip-path="url(#id109)"><path fill="#ffffff" d="M 5404.054688 699.328125 L 5455.109375 756.285156 L 5402.054688 803.839844 L 5351 746.882812 L 5404.054688 699.328125 " fill-opacity="1" fill-rule="nonzero"/></g></g></svg>